inDegrees=yes
name=ik_Xsens_quaternion
DataType=double
version=3
OpenSimVersion=4.4-2022-07-23-0e9fedc
endheader
time	pelvis_tilt	pelvis_list	pelvis_rotation	pelvis_tx	pelvis_ty	pelvis_tz	hip_flexion_r	hip_adduction_r	hip_rotation_r	knee_angle_r	knee_angle_r_beta	ankle_angle_r	subtalar_angle_r	mtp_angle_r	hip_flexion_l	hip_adduction_l	hip_rotation_l	knee_angle_l	knee_angle_l_beta	ankle_angle_l	subtalar_angle_l	mtp_angle_l	lumbar_extension	lumbar_bending	lumbar_rotation	arm_flex_r	arm_add_r	arm_rot_r	elbow_flex_r	pro_sup_r	wrist_flex_r	wrist_dev_r	arm_flex_l	arm_add_l	arm_rot_l	elbow_flex_l	pro_sup_l	wrist_flex_l	wrist_dev_l
12.48333333333333	0	0	0	0	0.93	0	18.82100067599547	-14.52799971939466	12.45299928862497	17.54700042428668	0.3062529312526446	7.216999994141599	0	0	77.24324320920702	-49.99631950739413	-11.90602273144023	0.01612594514008997	0.0002814508376905482	0	0	0	0	0	0	0	0	0	0	0	0	0	-13.98532652447271	2.631290789525584	-64.95183096326197	0.005471660863229108	44.91630337293142	0	0
12.5	0	0	0	0	0.93	0	18.82100067599547	-14.52799971939466	12.45299928862497	17.54700042428668	0.3062529312526446	7.216999994141599	0	0	79.08617839694909	-49.99609448395997	-10.68829686438513	0.01720284662415936	0.0003002463143071724	0	0	0	0	0	0	0	0	0	0	6.298221647367307e-39	0	0	-13.83266666522801	1.926152042521632	-65.14962967707827	0.005632356568725285	44.91797606271184	0	0
12.51666666666667	0	0	0	0	0.93	0	18.82100067599547	-14.52799971939466	12.45299928862497	17.54700042428668	0.3062529312526446	7.216999994141599	0	0	80.75970816794828	-49.99583740763922	-9.601734754756755	0.01818753778420713	0.0003174324171652883	0	0	0	0	0	0	0	0	0	9.930613217240719e-39	3.760710732036929e-39	0	0	-13.69707854517256	1.236524903376778	-65.36143416818572	0.005811186212523725	44.91954006804179	0	0
12.53333333333333	0	0	0	0	0.93	0	18.82100067599547	-14.52799971939466	12.45299928862497	17.54700042428668	0.3062529312526446	7.216999994141599	0	0	82.32986881044957	-49.99553594276752	-8.597437931214944	0.01909671942343501	0.0003333006302684941	0	0	0	0	0	0	0	0	0	0	0	0	0	-13.55806295299346	0.5349188790265762	-65.58356210678701	0.005996684276368482	44.92100301715938	0	0
12.55	0	0	0	0	0.93	0	18.82100067599547	-14.52799971939466	12.45299928862497	17.54700042428668	0.3062529312526446	7.216999994141599	0	0	83.83322168007609	-49.99516823567319	-7.598068632217373	0.02007309166495573	0.000350341540608108	0	0	0	0	0	0	0	0	0	0	0	0	0	-13.41222999377869	-0.1659103926576086	-65.81868770208135	0.006202192480047578	44.92239360341389	0	0
12.56666666666667	-4.901541316396352e-30	-5.877262792012549e-19	2.901455680755213e-29	4.4636500356299e-23	0.93	-1.403158872479389e-23	18.82100067599547	-14.52799971939466	12.45299928862497	17.54700042428668	0.3062529312526446	7.216999994141599	-1.82009496197009e-18	9.103751794748581e-16	85.23271587328655	-49.99470002171837	-6.526099597413402	0.02116205965226595	0.0003693476174354871	4.639292582338343e-19	1.120850302345917e-18	2.663526290995795e-19	4.315800917083533e-30	-4.181987917476196e-20	4.504360412073758e-30	-2.785670523903432e-26	7.259501244954219e-19	-3.253264710017642e-18	0	0	5.582772379868296e-19	-1.141330161703209e-19	-13.27033491953813	-0.8695386977287635	-66.03891670273555	0.00643842070329629	44.92382121068826	-1.592189790941334e-18	2.716891592958647e-19
12.58333333333333	6.167085185554613e-12	4.136332768186945e-12	-4.142136526076057e-12	4.664569178230502e-24	0.93	-8.759927096231076e-24	18.82100067599547	-14.52799971939466	12.45299928862497	17.54700042428668	0.3062529312526446	7.216999994141599	-5.836794884019845e-23	1.206285819386074e-22	86.462199890514	-49.99409982541221	-5.363870211516327	0.02221398404028839	0.0003877071615268765	-3.733751042727681e-22	-1.711019801410307e-22	-2.060808258024436e-22	3.571537373997676e-12	1.957547436397823e-12	-4.509953847308255e-12	1.459014066566542e-27	-2.331315382707647e-22	-5.552431047069485e-22	1.911339474304433e-06	1.911402740267987e-06	4.213632423068925e-23	3.560540138385443e-22	-13.10697855354962	-1.604734216628351	-66.25367986249904	0.006695009967308964	44.92531331011937	-1.320585457534367e-22	5.197943176169609e-22
12.6	0	0	0	0	0.93	0	18.82100067599547	-14.52799971939466	12.45299928862497	17.54700042428668	0.3062529312526446	7.216999994141599	0	0	87.70499530895785	-49.99331144116665	-3.909429014006494	0.02384689976909714	0.0004162069173638206	0	0	0	0	0	0	0	0	0	1.005820281198048e-45	1.005820281198048e-45	0	0	-12.93068468889224	-2.337395780745056	-66.4723506921725	0.00701444709283395	44.92709676019052	0	0
12.61666666666667	-1.382998720051952e-25	-4.855269311632474e-21	7.078501546450822e-26	5.691916052184204e-23	0.93	2.070155293207395e-23	18.82100067599547	-14.52799971939466	12.45299928862497	17.54700042428668	0.3062529312526446	7.216999994141599	1.882983428388171e-15	7.254587711921258e-21	88.77629097121003	-49.99227038374058	-2.416306495536891	0.02513427053025579	0.0004386757758399444	-5.094446569383968e-16	-5.773735410633317e-16	1.408657321987107e-17	1.386259770990314e-26	-2.117146627187338e-25	-8.692808446652969e-15	2.436835588673005e-15	-9.65262955340589e-16	-8.985877306882952e-15	0	0	9.589654235593789e-24	-5.193838597340568e-23	-12.74286854427597	-3.092716973607917	-66.67491913811405	0.00736525932951908	44.9288431673635	-1.665185007439345e-21	2.894511859127182e-20
